2200 0 1 0           
34 SPATIAL - INTEROP Version - 29.0.1 14 ACIS 29.0.1 NT 24 Mon Mar  8 14:46:40 2021 
1 9.9999999999999995e-07 1e-10 
body $1 -1 -1 $-1 $2 $-1 $-1 T -700.0737767254144 -1.6369295784982114 -1020.0664665133148 700.05040055119241 4000.5065852720618 -544.33728974836595 #
integer_attrib-name_attrib-gen-attrib $-1 -1 $-1 $-1 $0 2 1 1 1 1 1 1 1 1 1 1 1 1 1 0 1 1 1 @18 ATTRIB_XACIS_LAYER 1 #
lump $-1 -1 -1 $-1 $-1 $3 $0 T -700.0737767254144 -1.6369295784982114 -1020.0664665133148 700.05040055119241 4000.5065852720618 -544.33728974836595 #
shell $-1 -1 -1 $-1 $-1 $-1 $4 $-1 $2 T -700.0737767254144 -1.6369295784982114 -1020.0664665133148 700.05040055119241 4000.5065852720618 -544.33728974836595 #
face $5 -1 -1 $-1 $-1 $6 $3 $-1 $7 forward double out T -700.0737767254144 -1.6369295784982114 -1020.0664665133148 700.05040055119241 4000.5065852720618 -544.33728974836595 F #
rgb_color-st-attrib $-1 -1 $-1 $-1 $4 2 1 2 1 1 1 1 1 1 1 1 1 1 1 0 1 1 1 0.50196081399917603 0.63527888059616089 0.70588237047195435 #
loop $-1 -1 -1 $-1 $-1 $8 $4 T -700.0737767254144 -1.6369295784982114 -1020.0664665133148 700.05040055119241 4000.5065852720618 -544.33728974836595 unknown #
spline-surface $-1 -1 -1 $-1 forward { exactsur full nubs 5 5 open open none none 7 40 
	0 5 0.14889745088713452 1 0.34332301168695262 1 0.48264120744840244 1 0.75099190104898306 1 
	0.91392846802273242 1 1 5 
	0 5 0.026247138032194341 1 0.052365922595816419 1 0.075473469176605565 1 0.10205405101714514 1 
	0.12919259638346572 1 0.15385964208585737 1 0.18016877484347621 1 0.20506659366840813 1 0.23075826109853689 1 
	0.25598605695577187 1 0.28050219566068396 1 0.30732843731972304 1 0.33358414872589803 1 0.35857548005648993 1 
	0.38460494104511905 1 0.40963433543254568 1 0.43545744471388137 1 0.46118337895188904 1 0.48652673967540544 1 
	0.51313510661203676 1 0.53819924495253058 1 0.56383138534357258 1 0.59032847691252888 1 0.61497061613831772 1 
	0.64119339042157808 1 0.66663230333216994 1 0.69184757066553215 1 0.71840797213381102 1 0.74339704175339505 1 
	0.76937027910366629 1 0.79544861645464604 1 0.82030427155079078 1 0.84677537991821372 1 0.87062425071457938 1 
	0.89869547100901404 1 0.92247594687172785 1 0.9501886834555402 1 0.97736010022906383 1 1 5 
	-660.19390456769406 0.022139322381008249 -544.33728974836595 
	-661.38916669285084 119.14056615923846 -548.78805034395361 
	-664.1474495592189 393.80031123238427 -558.98016584208017 
	-668.03776632783035 779.91660966967356 -572.9162203956148 
	-674.03068381102071 1380.7084158393006 -596.45988785139775 
	-681.34719648721477 2111.8517708366371 -624.39297862622095 
	-688.11140503867819 2792.7287165081898 -651.92394426443104 
	-693.32557514369125 3318.0658262149259 -673.31417997546225 
	-697.42203722607883 3731.9480182346506 -690.51976883397526 
	-699.39459396189886 3931.1522700361957 -698.77314031793549 
	-700.0737767254144 4000.0084235597305 -701.70739146213123 
	-652.79778555784765 -0.031166727728759724 -558.73219330944039 
	-653.99364325377712 119.08875600164197 -562.81384386816887 
	-656.75390494094154 393.75201939831277 -572.13624790709935 
	-660.58519358628018 779.86620663639178 -586.7511302358389 
	-666.60631807846539 1380.6684352203588 -607.65779732654937 
	-673.87202698340093 2111.8147539911474 -635.00063726885958 
	-680.632318763493 2792.6994143381071 -660.64697678785717 
	-685.84212285290846 3318.0423229306425 -680.62445493192797 
	-689.93038174742276 3731.928539692175 -696.86354999120442 
	-691.90714086811829 3931.1356592373745 -704.40100350493412 
	-692.57884203555477 3999.9917839455684 -707.36263491211992 
	-638.07611737577417 -0.13359032188736819 -586.39331400952528 
	-639.25759595167119 118.98753945368117 -590.21744870199541 
	-641.98972839928547 393.65415983293531 -598.79147562015123 
	-645.85770673998638 779.78177037083742 -610.00911627918026 
	-651.74576106512745 1380.5831739460525 -631.47954675670712 
	-659.02087909784325 2111.7480528863261 -654.2372025100052 
	-665.69236382563588 2792.638857408449 -678.61508758047421 
	-670.87759001436666 3317.9915237531172 -696.26208337967591 
	-674.93068814917808 3731.8836244285681 -711.15109335384921 
	-676.88899927778255 3931.0934018323969 -718.08565264822971 
	-677.56790577355355 3999.9519959950267 -720.4210648209945 
	-616.99946710172901 -0.26508205820141484 -621.91493291911399 
	-618.16749082858394 118.85861738635393 -625.14428998306585 
	-620.84534005260389 393.52850714566489 -633.06242955209461 
	-624.6086292146357 779.6574736379041 -644.23102771482411 
	-630.50748945393138 1380.4808198360295 -660.28152091863785 
	-637.57079478461242 2111.6467166387351 -683.36387137876022 
	-644.2026759896429 2792.556468799793 -703.19437848149846 
	-649.26232545321534 3317.9129053267843 -720.25590969357677 
	-653.26920243835866 3731.8139949732563 -733.06203151426917 
	-655.18535592546948 3931.0258254482701 -739.60660982721174 
	-655.84848941109749 3999.8849921557567 -741.84416555709163 
	-588.6466063608857 -0.42613826897695617 -665.43506841566875 
	-589.78487202120778 118.69971543449472 -668.21593971810012 
	-592.41781510315377 393.37727943057439 -674.37061192144051 
	-596.09442836200276 779.51434578572639 -683.78452152694217 
	-601.78020793824169 1380.3413653792213 -699.51076872604176 
	-608.71598781280295 2111.5267793642033 -718.1443975330933 
	-615.1123230573188 2792.4413727319338 -737.42472331190811 
	-620.06028245585742 3317.809542353536 -751.90687035405813 
	-623.93683586587053 3731.7150428413888 -763.98301824306952 
	-625.80745964544224 3930.9309596441103 -769.64725816563066 
	-626.45333127928939 3999.7913647981113 -771.62740621818193 
	-552.99374920018488 -0.60265629627110684 -713.15466747535788 
	-554.08752800543937 118.52514637288959 -715.57745355544819 
	-556.59972288004167 393.20512943825997 -721.46548521246962 
	-560.1311491222649 779.34840067813366 -729.74901239942415 
	-565.61468835149435 1380.1877778045844 -742.98817775730242 
	-572.23030171852417 2111.3797759335521 -760.87305711051465 
	-578.39250670313902 2792.3078112200697 -777.48643435515191 
	-583.11630175313906 3317.6813832831367 -791.2496383641203 
	-586.83843816735384 3731.5936735626801 -802.076755958479 
	-588.6252303434112 3930.8117725507545 -807.43237746865043 
	-589.24235732968748 3999.672958525925 -809.29870051615853 
	-517.95878546563074 -0.75625352282168024 -754.69666131135443 
	-519.00221916488704 118.37274327820276 -756.96269751502905 
	-521.41004291830916 393.05681708569568 -762.12897188380919 
	-524.77536712077813 779.20362657520877 -769.99397811803215 
	-529.99025543367202 1380.0473451611681 -782.89556435084035 
	-536.3228493439326 2111.2496411304382 -799.01855717308695 
	-542.17490610365758 2792.1819475297657 -815.42423980454396 
	-546.69106710865401 3317.562430298698 -828.05311262083751 
	-550.23527000162562 3731.478526661931 -838.42801542732377 
	-551.94073525919543 3930.6989500564878 -843.43328280789285 
	-552.53105060913936 3999.5610878671469 -845.13852277952003 
	-483.02752934289839 -0.89227220637963001 -791.50262486549877 
	-484.01832894440577 118.23766773299806 -793.67978359710833 
	-486.29900030704545 392.92325507652708 -798.81925628001989 
	-489.49561325693611 779.07333847118184 -806.33776280223981 
	-494.45597557012604 1379.9230634773826 -818.45441336000329 
	-500.44190149119459 2111.1284536881649 -834.75792801921057 
	-506.0173515494414 2792.068920041329 -849.90953495054066 
	-510.28237420037937 3317.4513920209893 -862.73118236785444 
	-513.65032348055706 3731.371522254256 -872.59335199779525 
	-515.26553025647581 3930.5932675993413 -877.51877300175136 
	-515.8235698762943 3999.4557393609875 -879.22955154014107 
	-447.7466183480106 -1.0142498207276276 -824.52765147741843 
	-448.68596067422828 118.11686501642589 -826.55580340602398 
	-450.84758774895823 392.80511621805636 -831.36387502662262 
	-453.86666297301889 778.95778143953407 -838.72985436085901 
	-458.54002637975543 1379.8102964520563 -850.93985636029595 
	-464.19629163640394 2111.0213205414475 -866.75383432022932 
	-469.43258090283985 2791.9633613563151 -882.43895470588359 
	-473.46891759150583 3317.3508156132066 -894.65714964248252 
	-476.63559009702419 3731.2724610676846 -904.69323936389333 
	-478.16196897910737 3930.495854579287 -909.45479104938897 
	-478.68907742776065 3999.358870108344 -911.11591438027642 
	-412.83558813386782 -1.1207899457488111 -853.39218852627437 
	-413.72450770755967 118.01156954867633 -855.25138876043025 
	-415.76628213659222 392.70228080937932 -859.78031983101766 
	-418.6123410008754 778.85788733980235 -866.8931897919316 
	-423.01068561726908 1379.7143162995574 -878.88791821142922 
	-428.31226257216912 2110.9278198788352 -895.05520627544502 
	-433.23500957112839 2791.8740837667456 -910.55364361566376 
	-437.00409184541002 3317.2619034204245 -923.40726417295332 
	-439.98255070590585 3731.1863875704175 -933.25669110956369 
	-441.408704078234 3930.410047037687 -938.22486672896582 
	-441.90059414557584 3999.2730888818869 -939.97508997712941 
	-378.55268432505375 -1.2132077611090608 -878.4493287350997 
	-379.3975420712851 117.9210187097367 -879.96943263530238 
	-381.3350604862801 392.61573111589018 -883.79830517307209 
	-384.02248782904593 778.77558442264194 -890.29832017780996 
	-388.14628193326462 1379.635456513545 -902.1921691224577 
	-393.10164857272855 2110.8517695368769 -918.60870295006453 
	-397.68516651463796 2791.7987295014505 -934.85663068819395 
	-401.21285011050253 3317.1894082270792 -947.66289966307977 
	-403.98480232648484 3731.114281265583 -957.97714257515611 
	-405.31077615168016 3930.3380380988538 -963.19323461205795 
	-405.776307624921 3999.2020577484172 -964.77476547386652 
	-344.41010238285247 -1.2941528571809613 -900.41513655544156 
	-345.21351109790743 117.84223070010034 -901.51778337648 
	-347.04841285819253 392.54111249835046 -904.60081606244682 
	-349.59135992085623 778.70680170807555 -910.05917819048693 
	-353.46910329718207 1379.5733295257137 -920.98557961605638 
	-358.09307144248572 2110.7940927628897 -937.20808170604164 
	-362.33587346869501 2791.7415321135504 -954.26276850912768 
	-365.60220573436663 3317.1327555829239 -967.6443852119728 
	-368.1585561192004 3731.0569505292974 -978.71024753894881 
	-369.40068088953842 3930.282655555804 -983.67525305517358 
	-369.82494702709647 3999.1459462672324 -985.54783427146037 
	-310.21791637051467 -1.3651745777451652 -919.70788363205065 
	-310.98029073370071 117.77344154422713 -920.37340550126362 
	-312.72357071749252 392.47781295512527 -922.35642698363847 
	-315.122771115153 778.64951301629071 -926.72816621638572 
	-318.76844104760517 1379.5244343237134 -936.22227892245564 
	-323.07462180341071 2110.751374512874 -951.78961017319705 
	-327.00971572763734 2791.7032227639629 -968.59613100997376 
	-330.00813476580981 3317.0943658314591 -982.72447979262029 
	-332.36292031788275 3731.0195831256697 -994.08612741203126 
	-333.49264381330283 3930.2440234020678 -999.66684216883164 
	-333.8758939938071 3999.1066299102827 -1001.8188070837925 
	-275.74541142560349 -1.4272717344933881 -936.59772266502534 
	-276.46820441055763 117.71381671929001 -936.76327367753061 
	-278.11851925423542 392.42369469378696 -937.64576484206157 
	-280.38458298561648 778.60285646836269 -940.54565968769316 
	-283.808609974869 1379.4877347687636 -948.19507682627489 
	-287.81417775930993 2110.7232662462211 -962.46750777538193 
	-291.44269941792288 2791.6800753372308 -978.88718631042047 
	-294.19229134579348 3317.0736429809895 -993.09508247428619 
	-296.34626885136083 3731.0002257051237 -1004.6661773263954 
	-297.37190841227493 3930.2244744145705 -1010.5763847983795 
	-297.7360463925707 3999.088940313618 -1012.3234163575021 
	-241.53839958052956 -1.480165775790738 -951.00706024248882 
	-242.22403659454179 117.66363383447109 -950.60738733562243 
	-243.78488203260554 392.37932965412097 -950.30339040874492 
	-245.92333556249716 778.56646063665403 -951.59176933721415 
	-249.13496058719761 1379.4621588693296 -957.15941843458074 
	-252.86281693748657 2110.7086625956954 -969.48987850459014 
	-256.20210019285616 2791.6721938660198 -985.04297352592721 
	-258.71893367894785 3317.0698527193822 -998.87737526267142 
	-260.67196290100992 3730.997652481004 -1010.694753254872 
	-261.60894912886857 3930.223407718107 -1016.4754139737017 
	-261.93174711675704 3999.0871730952472 -1018.506717490234 
	-207.19237908846725 -1.5247670781127454 -963.18303820117853 
	-207.83802091612566 117.62146312932941 -962.2947701938906 
	-209.31096296828184 392.34325615588318 -960.73140536005803 
	-211.32378370780438 778.53872348559821 -960.31270807215105 
	-214.33402874074548 1379.4467200650163 -963.4054809627803 
	-217.79450501842308 2110.7056433273701 -973.41038297957653 
	-220.86081349308807 2791.6780029864926 -987.5353335755816 
	-223.15097975137982 3317.0806408628841 -1000.7616044715824 
	-224.91845484521426 3731.0115668453282 -1012.3144671396907 
	-225.76317248644315 3930.23848876796 -1018.0588796315933 
	-226.05444079553322 3999.1026989396714 -1020.0664665133148 
	-172.77753886726535 -1.5617551252914836 -973.30837670726771 
	-173.38655850242483 117.58731871762325 -971.82089043664166 
	-174.7693895591735 392.3150212759848 -969.0502539178558 
	-176.65848470880303 778.51913321760617 -966.84357425162921 
	-179.47274304904425 1379.440184761185 -967.26095905896887 
	-182.67969853867874 2110.7132813472977 -974.47184524016143 
	-185.48856206170336 2791.6964021382651 -986.65169691355459 
	-187.56425359155185 3317.1055342767677 -998.86450593601535 
	-189.15222871816945 3731.040374740146 -1009.9427745421168 
	-189.90971351331672 3930.2690850062882 -1015.4845524704322 
	-190.1682292619457 3999.1336164889608 -1017.5020770519023 
	-138.69873556028085 -1.5906126759898598 -981.24184031267021 
	-139.26546703194037 117.56060331007711 -979.34284503692982 
	-140.5606194101415 392.29436728245514 -975.32102406184356 
	-142.32568835351074 778.50691262040073 -971.37906679320508 
	-144.94995400719034 1379.4414282568805 -969.00428871814631 
	-147.91785180926274 2110.7300145483587 -973.05851983406205 
	-150.48550053768571 2791.7254376351643 -982.87061646956943 
	-152.35959977145811 3317.1422942273712 -993.73278770456568 
	-153.78135288703356 3731.0823755841102 -1003.974574637853 
	-154.45537516878912 3930.3132134130337 -1009.2201516869133 
	-154.6859329229253 3999.1785820868922 -1011.1078683401879 
	-104.81878624775372 -1.6127346395835502 -987.35985029598078 
	-105.34879337147649 117.5412299251293 -984.8852664411022 
	-106.54931317362505 392.28019488645509 -979.84250984458004 
	-108.19180908759591 778.50124611833644 -974.14352139917412 
	-110.62934026870086 1379.4494524955144 -968.91205904202127 
	-113.36684808436387 2110.7543412375567 -969.58644932050879 
	-115.70919866555649 2791.7637191845583 -976.581617925915 
	-117.39604195131824 3317.189809995316 -985.68334787730691 
	-118.6598045429656 3731.1359719459851 -994.86002893702857 
	-119.25607000637876 3930.3695405948811 -999.64572135398816 
	-119.45953243944015 3999.2358282967007 -1001.3811844892948 
	-70.911620546289157 -1.6273530030605343 -991.45656654932304 
	-71.394902963141007 117.52823748651966 -988.70933087744504 
	-72.503980018257252 392.27281179780516 -982.53666157361295 
	-74.014230647515163 778.50132665732349 -975.36293972061526 
	-76.262228539505514 1379.4630008082886 -967.3371636320436 
	-78.78011308952226 2110.7855388547209 -964.27161786249883 
	-80.906859674242298 2791.8100879729718 -968.12474390777982 
	-82.416555028797006 3317.2466515602373 -975.1343296563382 
	-83.534372457275609 3731.2003359427531 -982.85900543791195 
	-84.056992266783681 3930.4371368366874 -987.05047317757317 
	-84.236282738094232 3999.304688415501 -988.54103167690391 
	-36.905007661371663 -1.6358761759593108 -993.91174334864684 
	-37.350272794586189 117.52236591413202 -990.61625195753049 
	-38.356151497906431 392.27127997974685 -983.65746856353405 
	-39.736672193254492 778.50764774479444 -974.90655453182717 
	-41.784768880982639 1379.4817647420155 -964.36639055473529 
	-44.077396616064831 2110.8215021810615 -957.68672455568185 
	-46.005154469414123 2791.8632995595476 -957.8424469453339 
	-47.348646195104017 3317.3117243990155 -962.38908622466522 
	-48.328443828651814 3731.273945530671 -968.39106531488164 
	-48.781395468523513 3930.5144854725272 -971.85300991075519 
	-48.937884632217553 3999.3834756297988 -973.05202583726191 
	-2.9546454498256285 -1.6369295784982114 -994.35434945927386 
	-3.3492621777112124 117.52252382643815 -990.89870987081588 
	-4.2584481702125929 392.27652479515723 -982.95260833066072 
	-5.4967434854259958 778.51932490761465 -973.00739504771229 
	-7.3450781507034053 1379.5059101756119 -959.94621950481371 
	-9.4078209202823597 2110.8623301833695 -949.79195916981791 
	-11.131402492220168 2791.9207943304555 -946.40720856007965 
	-12.32359098482052 3317.3827900314272 -948.03047180967519 
	-13.176450118032481 3731.3548197018281 -951.96724633424628 
	-13.568290259498722 3930.6000788223464 -954.43566190501474 
	-13.700122606289437 3999.4702967953444 -955.3999479696547 
	30.892365165216255 -1.6319389617283377 -993.16825259131258 
	30.539097227758969 117.52977716539726 -989.26893252360185 
	29.74087655465684 392.28721148762452 -980.78046678894339 
	28.640612357586516 778.53688915771863 -969.52019895142644 
	27.005203845820841 1379.5343872644712 -954.35585353493741 
	25.173309159447825 2110.9073161078945 -940.77229304504328 
	23.651475199876863 2791.9826649360471 -933.78694499533799 
	22.612128116466124 3317.4580100566582 -932.5454073748059 
	21.87860226118924 3731.4406805047979 -934.19188557142854 
	21.545532154370459 3930.6909087697413 -935.59900981579165 
	21.431922090306564 3999.5630832248216 -936.1320954620461 
	64.88067051682566 -1.619836206794389 -990.06685297694889 
	64.580184713549329 117.54287917704528 -986.06527060793735 
	63.887437209835419 392.30447065905491 -976.84172124201052 
	62.940713114732993 778.55939111292196 -964.71009508355837 
	61.520920971983465 1379.5677064939166 -947.47335687560826 
	59.933244160891803 2110.955875160997 -930.80853155137504 
	58.615273540396501 2792.0481069052785 -920.22876065517494 
	57.724644722140674 3317.5374572322144 -915.95012779456954 
	57.107643590860974 3731.531234896257 -915.18409942587539 
	56.830407511728332 3930.7868376871756 -915.42237596177529 
	56.73750558720814 3999.660709049147 -915.59477603553125 
	98.628767113831429 -1.6014438996930949 -985.26996518525129 
	98.376307021634659 117.56277566431686 -981.02917012200749 
	97.802305069818104 392.32692095363359 -971.50044511179465 
	97.00724198669397 778.58717508562495 -958.47003184396954 
	95.817716316325601 1379.6044426398635 -939.65885068116597 
	94.478264315384024 2111.0071594835213 -920.09354933565032 
	93.370798522960513 2792.1152977890742 -906.17723702994113 
	92.628318904286374 3317.6185500546289 -898.88533441885772 
	92.12288646861937 3731.6238682479297 -895.58689982459146 
	91.899095876697388 3930.8850544835177 -894.5985225887564 
	91.823627473558801 3999.7609745847949 -894.31491723638817 
	132.21833133385488 -1.5765736908035706 -978.72723115162819 
	132.01992596582465 117.58844070551709 -974.43784762374753 
	131.56311185303821 392.35526928818535 -964.56790946330841 
	130.93316971246975 778.61925229671738 -951.0694819833451 
	129.98028032487019 1379.6446389411628 -930.90580470484019 
	128.90485686300022 2111.0599707928518 -908.95782959168821 
	128.01291748089088 2792.1833224086822 -891.88891195676229 
	127.42160700244406 3317.7000392930886 -881.6993699497682 
	127.02737340980779 3731.7168673576207 -875.87505725638221 
	126.85518106781116 3930.9838128680321 -873.61181782436176 
	126.79800286183401 3999.8616717705563 -872.90153996637525 
	165.84780670959225 -1.5449637263743625 -970.36903753594515 
	165.70538909788775 117.62064518405782 -966.08552271728695 
	165.37768660616663 392.38884265674028 -956.22963422220425 
	164.91776176596795 778.65606158110404 -942.39758376192344 
	164.21880561905471 1379.6876952444393 -921.38825480665059 
	163.42071231163294 2111.1142485173978 -897.43606036703306 
	162.76149199065884 2792.2509669896763 -877.71480539078425 
	162.32774654314929 3317.7805081515808 -864.80229099829592 
	162.04665748423986 3731.8086947769907 -856.49455203479181 
	161.92702797043003 3931.0813235266714 -852.97774733536858 
	161.88760852491421 3999.961193693679 -851.82155297521433 
	199.3115027180055 -1.5069912966366701 -960.29606161214519 
	199.22755997294459 117.65890547998652 -956.10049804612117 
	199.03273316043257 392.42798978440555 -946.38729957828662 
	198.75695947295273 778.69675736108206 -932.67448603090486 
	198.32612465573874 1379.7329037145919 -911.28407490843063 
	197.82495918057148 2111.1683016158509 -885.96474287103706 
	197.40926576875952 2792.317023311643 -863.95547946421027 
	197.14587948604745 3317.8578279442472 -848.73815080921202 
	196.98550603964151 3731.8964298929159 -838.19925357675413 
	196.92036272308491 3931.1744843519718 -833.49736968574371 
	196.89961025821842 4000.0562489765575 -831.92641906907977 
	232.7306678399099 -1.4620261685220157 -948.33908991541102 
	232.70967611159463 117.70365084783339 -944.36833151996996 
	232.65747626637071 392.47251655864511 -935.09585150339592 
	232.57339589261488 778.74198281502731 -921.73155210848358 
	232.43090544102759 1379.7803502369275 -900.57791355665972 
	232.25127271486448 2111.2218046063135 -874.64317278762962 
	232.10433898332153 2792.3796682260668 -851.11730154843667 
	232.02216163048547 3317.9305127321422 -833.92519889349671 
	231.99083640287836 3731.9785905843373 -821.40853985575086 
	231.98588460046886 3931.2614251001683 -815.69567472496135 
	231.98457984311943 4000.1449970326998 -813.73349628318658 
	266.18013544330285 -1.410063496093926 -934.49716706695347 
	266.22391424287736 117.75520488843995 -930.80255089553089 
	266.32088149230776 392.52314879581115 -922.16129254223404 
	266.44327064214843 778.79168781536669 -909.5850391894204 
	266.60569974290422 1379.8304790035229 -889.15469068108428 
	266.77231842269879 2111.2752834001071 -863.33650281892847 
	266.92110968440511 2792.4393180242678 -839.09705578311343 
	267.04667862569033 3317.9972557012907 -820.72610056375765 
	267.16317592770889 3732.0527314524325 -806.79312429763866 
	267.22246482110177 3931.3399152673946 -800.18608900878507 
	267.24560277864117 4000.2247351060778 -797.98366415310079 
	299.49809790190562 -1.3506077250724502 -918.63603700063493 
	299.61199833766784 117.81362748217728 -915.38551450054308 
	299.86694856871941 392.57961171859438 -907.65437118892362 
	300.20451083579661 778.84618575314926 -896.14472323199982 
	300.69279710988485 1379.8829416563342 -877.09859069739184 
	301.22896324963222 2111.3283528962979 -852.13408373971492 
	301.6944613598925 2792.4960852958452 -827.84558990705295 
	302.04804679402594 3318.0587418953191 -808.93406363338306 
	302.32894392104492 3732.1196756411723 -794.10632620564832 
	302.4698422475438 3931.4092029531007 -787.14501345366966 
	302.51537203719255 4000.2954970130072 -784.64117860558747 
	332.91673276004104 -1.2833724716010693 -900.67963593974991 
	333.10188871115565 117.87973488200305 -897.89954289899038 
	333.52259544354723 392.64295210322678 -891.29794720245263 
	334.09103127112337 778.90588128900208 -881.31019757885406 
	334.92409353913251 1379.9386172736324 -864.18717939048759 
	335.85819033024922 2111.3816081814734 -840.89705309736155 
	336.67049459769214 2792.5498005632712 -817.4366110540476 
	337.26879050858673 3318.115423441292 -798.46038242491818 
	337.73660684029636 3732.1793648673975 -783.40095550156582 
	337.95521498604268 3931.4717390941069 -775.95110972577675 
	338.0360197558698 4000.3580565322609 -773.53724987888904 
	366.16605173720262 -1.2076449784569832 -880.43468866852743 
	366.42853512412086 117.95362168801603 -878.31662205446173 
	367.02375739434984 392.71302670988621 -873.12511055928587 
	367.83200533056311 778.97122706178175 -864.9498151348306 
	369.03388385706887 1379.997099624911 -850.51370396699849 
	370.39204461427573 2111.434566312631 -829.73139893977429 
	371.57241714268514 2792.6006792205981 -807.7805680525214 
	372.44447818091828 3318.1658647417498 -789.65464324138725 
	373.10597158946047 3732.2319742831805 -774.58811906084782 
	373.42925808676432 3931.5240835381146 -767.48741221204671 
	373.53325588216842 4000.4117925195073 -764.79462779598612 
	399.3188957847766 -1.1235938498350606 -857.94695682448219 
	399.65786108932178 118.03592381000615 -856.4660993032951 
	400.43347035373222 392.79083505011863 -852.86804760696384 
	401.49680452501212 779.0425468776707 -846.9789534301882 
	403.08535447152389 1380.0594928807707 -835.78504763451485 
	404.90162615830161 2111.487518172712 -818.56527739847809 
	406.48725600122594 2792.6472777283766 -799.27492793786564 
	407.64209009727631 3318.210975975956 -782.28168153988838 
	408.53031044019065 3732.2754632409014 -768.22892116818718 
	408.93910883670878 3931.5694877565134 -760.88973040897895 
	409.08994183377644 4000.4558860949278 -758.64601679309612 
	432.09046469365745 -1.0303786221390965 -832.98869263223924 
	432.51618057702683 118.12615556356218 -832.47617813495958 
	433.48089061279546 392.87543509007037 -830.77478521629598 
	434.80574300196571 779.11972295015744 -827.41915449865405 
	436.80153970301234 1380.1250803216485 -820.17727268967371 
	439.10052762699462 2111.540474141043 -807.3705054969638 
	441.11613222105944 2792.6907036376797 -791.58812537406561 
	442.60283409809011 3318.2470355899109 -777.30506703574849 
	443.71443966974499 3732.3100665967254 -764.21621727599916 
	444.25849009739972 3931.6002234908028 -758.19418508128433 
	444.43093151233273 4000.4881556328169 -755.63229816194951 
	465.32436305299041 -0.92671191126009944 -805.21702973306219 
	465.83220379860683 118.22748108200861 -805.5025179151562 
	467.00442249190831 392.96929031584978 -806.19941470742276 
	468.62088997258394 779.20308781443737 -806.21223203444765 
	471.06151617376662 1380.1931411489015 -803.93711341563744 
	473.88757006195675 2111.591540356359 -796.73557856518801 
	476.38704510920104 2792.7267385718224 -785.95889129249827 
	478.20569350001006 3318.2761986007999 -774.26478290695923 
	479.60858465839232 3732.3304173023125 -764.13124120782584 
	480.24247947737911 3931.6220819267392 -757.98259872037397 
	480.4805714875784 4000.5065852720618 -756.4412020410964 
	497.86125553952132 -0.81272703033278049 -774.66245822460519 
	498.47485454202234 118.33630138708671 -776.50369498454688 
	499.86467475354033 393.06919972273795 -779.98018004281505 
	501.7850671748426 779.29069616103402 -783.83968007581291 
	504.70444142815251 1380.2609422604594 -787.72965707639378 
	508.11853346384515 2111.6346179776615 -788.19754542596991 
	511.1367729095424 2792.7500862984803 -783.67553761321051 
	513.38742590135041 3318.2806988159514 -777.78391293364984 
	515.05057206190907 3732.3292138199813 -769.75779048920469 
	515.87588142400568 3931.6105802056509 -766.65850432020136 
	516.1344873174105 4000.4967360389055 -764.76680730323449 
	531.04666109413415 -0.6866672609694433 -740.85802419843947 
	531.75532054800408 118.45857344781965 -743.8877279757329 
	533.39460165804155 393.17928168307458 -751.03584873527279 
	535.6754803197673 779.38252291394019 -760.35825755082146 
	539.13790913256867 1380.3264034362294 -772.19900457756455 
	543.20424614410661 2111.6689787876317 -782.07713940461394 
	546.8615348954188 2792.751871963535 -787.29187881112171 
	549.54626842433527 3318.2640854359333 -787.09819670581192 
	551.64100838590753 3732.2878739563885 -786.31772266121527 
	552.58647192321098 3931.5673382879954 -784.01174878077461 
	552.93224201112184 4000.4476265656485 -783.79804565840629 
	564.2646645913477 -0.54322031490414702 -702.36975038767378 
	565.1086757574808 118.59367047283922 -707.81804388474325 
	567.04067159043791 393.29733788773046 -719.94683920801845 
	569.69241548492187 779.4812623676869 -735.02110809899568 
	573.79683318145419 1380.3876735040758 -757.80894065626046 
	578.63839055027358 2111.6853414501534 -780.82297180576109 
	583.00835653136983 2792.7274706807184 -797.98597897817444 
	586.30690450380939 3318.2009317630118 -808.97812531123873 
	588.79823246994704 3732.2041230105965 -814.33389398427698 
	590.02041087680743 3931.4638734673313 -817.62186503846146 
	590.42646412708825 4000.3413853913639 -818.25380284356993 
	597.05288337294019 -0.38714359228151807 -660.47708632540048 
	598.01695555633376 118.74307734044055 -667.88973876682576 
	600.19471568351787 393.43491291421788 -683.5921260025857 
	603.32944103280067 779.58650642857833 -707.91966635028587 
	608.04648812215498 1380.4584686151816 -740.83289115563809 
	613.74546301306975 2111.7014404849601 -779.61062983325189 
	618.92100993480278 2792.691822415653 -811.67226443369964 
	622.83140304479411 3318.1264658919936 -833.86091700501754 
	625.89492900362063 3732.0887808281259 -850.81136927993862 
	627.32101480740107 3931.3370203133309 -857.48052636394345 
	627.82694144161644 4000.2071975963122 -860.18536128908249 
	622.54939881236487 -0.24466514175901466 -622.21359630775737 
	623.59551538730614 118.8816994109857 -630.79626721904276 
	626.10281183018105 393.54861715897437 -653.51437768393544 
	629.46942942988278 779.69159808816198 -680.58699788657486 
	634.80029442985688 1380.5212732821274 -725.55440172942792 
	641.14308325240677 2111.7245641048366 -775.82751409981188 
	646.97864900989543 2792.6710893908839 -820.4543078449293 
	651.44898916823024 3318.0661057702482 -853.89750831354218 
	654.87052014363906 3732.0066940260458 -877.1569688130362 
	656.5645514962365 3931.2335570119149 -889.80473014999245 
	657.12517547560731 4000.100674921569 -893.40957802543301 
	641.9662829800543 -0.12484092494059951 -590.02456777980262 
	643.11159530701582 118.99441526605165 -600.62270732402942 
	645.71890906706699 393.65963786184921 -624.02865960234817 
	649.403596726508 779.77997328778724 -657.52765095111954 
	655.10622590334754 1380.5884732860118 -708.70591586146213 
	661.95902417428681 2111.7594196696778 -768.30894988235264 
	668.34500178137625 2792.6672080018957 -823.94573755363638 
	673.15364885082488 3318.0421977894348 -863.22683710974991 
	677.00090899479085 3731.9488317735613 -895.98301104650136 
	678.79576041842586 3931.171236526 -909.99959502353636 
	679.42225603808924 4000.0332713857665 -915.03193116634895 
	654.3663181147856 -0.039191232690654942 -567.00910766542836 
	655.55030611198208 119.07835893700417 -578.13130927851 
	658.30145896986926 393.7334067374577 -604.42719619943637 
	662.10240878758157 779.84925149459445 -639.34488049216611 
	668.06179798774895 1380.6421030761007 -695.06418726334482 
	675.25777344486517 2111.7904995726076 -761.13823048602114 
	681.91156019217317 2792.6831998819302 -821.20837046654958 
	687.05093214358601 3318.0323797488409 -867.72757818986395 
	691.02648504387457 3731.9337812891481 -902.11732087855296 
	692.98332227950993 3931.1422228562292 -920.00376925555611 
	693.6358582903589 4000.002850958479 -925.452362021721 
	660.01251067065516 -0.001428423136303536 -556.86246642717538 
	661.20301357156143 119.11660955043706 -567.88250802396203 
	663.98352152803636 393.77114559599272 -594.38377186828438 
	667.8716655967313 779.88102714716706 -631.00302991297917 
	673.93667938847705 1380.668030960102 -688.44556162701906 
	681.24110474343865 2111.8116048857682 -755.99863724429224 
	688.07838652197802 2792.6903945579647 -819.98409721998792 
	693.28191537689861 3318.0376811315609 -867.14251695506323 
	697.40232230030381 3731.9268232590293 -904.93707353542743 
	699.38178226332093 3931.1347415935925 -923.01345030603079 
	700.05040055119241 3999.994245447313 -928.78187483862325 
	0 
	0 
	0 
	0 
	0 
	0 
	0 
	F 1 F 0 F 1 F 0 } I I I I #
coedge $-1 -1 -1 $-1 $9 $10 $-1 $11 forward $6 $12 #
coedge $-1 -1 -1 $-1 $13 $8 $-1 $14 forward $6 $15 #
coedge $-1 -1 -1 $-1 $8 $13 $-1 $16 forward $6 $17 #
edge $18 -1 -1 $-1 $19 0 $20 1 $8 $21 forward @7 unknown T -700.0737767254144 0.022139322381008249 -701.70739146213123 -660.19390456769406 4000.0084235597305 -544.33728974836595 #
pcurve $-1 -1 -1 $-1 0 forward { exppc nubs 1 open 2 
	0 1 1 1 
	0 0 
	1 0 
	0.001 
	-1 
	spline forward { ref 0 } I I I I 
	} 0 0 #
coedge $-1 -1 -1 $-1 $10 $9 $-1 $22 forward $6 $23 #
edge $24 -1 -1 $-1 $20 0 $25 1 $9 $26 forward @7 unknown T -700.0737767254144 3999.0871730952472 -1020.0664665133148 700.05040055119241 4000.5065852720618 -701.70739146213123 #
pcurve $-1 -1 -1 $-1 0 forward { exppc nubs 1 open 2 
	0 1 1 1 
	1 0 
	1 1 
	0.001 
	-1 
	spline forward { ref 0 } I I I I 
	} 0 0 #
edge $27 -1 -1 $-1 $28 -1 $19 -0 $10 $29 reversed @7 unknown T -660.19390456769406 -1.6369295784982114 -994.35434945927386 660.01251067065516 0.022139322381008249 -544.33728974836595 #
pcurve $-1 -1 -1 $-1 0 forward { exppc nubs 1 open 2 
	-1 1 0 1 
	0 1 
	0 0 
	0.001 
	-1 
	spline forward { ref 0 } I I I I 
	} 0 0 #
rgb_color-st-attrib $-1 -1 $-1 $-1 $11 2 1 2 1 1 1 1 1 1 1 1 1 1 1 0 1 1 1 0.50196081399917603 0.63527888059616089 0.70588237047195435 #
vertex $-1 -1 -1 $-1 $16 $30 #
vertex $-1 -1 -1 $-1 $14 $31 #
intcurve-curve $-1 -1 -1 $-1 forward { exactcur full nubs 5 open 7 
	0 5 0.14889745088713452 1 0.34332301168695262 1 0.48264120744840244 1 0.75099190104898306 1 
	0.91392846802273242 1 1 5 
	-660.19390456769406 0.022139322381008249 -544.33728974836595 
	-661.38916669285084 119.14056615923846 -548.78805034395361 
	-664.1474495592189 393.80031123238427 -558.98016584208017 
	-668.03776632783035 779.91660966967356 -572.9162203956148 
	-674.03068381102071 1380.7084158393006 -596.45988785139775 
	-681.34719648721477 2111.8517708366371 -624.39297862622095 
	-688.11140503867819 2792.7287165081898 -651.92394426443104 
	-693.32557514369125 3318.0658262149259 -673.31417997546225 
	-697.42203722607883 3731.9480182346506 -690.51976883397526 
	-699.39459396189886 3931.1522700361957 -698.77314031793549 
	-700.0737767254144 4000.0084235597305 -701.70739146213123 
	0 
	null_surface 
	null_surface 
	nullbs 
	nullbs 
	-1 
	-1 
	I I 
	0 
	0 
	0 
	
	-1 
	none F F 1 F 0 } I I #
edge $32 -1 -1 $-1 $25 -1 $28 -0 $13 $33 reversed @7 unknown T 660.01251067065516 -0.001428423136303536 -928.78187483862325 700.05040055119241 3999.994245447313 -556.86246642717538 #
pcurve $-1 -1 -1 $-1 0 forward { exppc nubs 1 open 2 
	-1 1 0 1 
	1 1 
	0 1 
	0.001 
	-1 
	spline forward { ref 0 } I I I I 
	} 0 0 #
rgb_color-st-attrib $-1 -1 $-1 $-1 $14 2 1 2 1 1 1 1 1 1 1 1 1 1 1 0 1 1 1 0.50196081399917603 0.63527888059616089 0.70588237047195435 #
vertex $-1 -1 -1 $-1 $14 $34 #
intcurve-curve $-1 -1 -1 $-1 forward { exactcur full nubs 5 open 40 
	0 5 0.026247138032194341 1 0.052365922595816419 1 0.075473469176605565 1 0.10205405101714514 1 
	0.12919259638346572 1 0.15385964208585737 1 0.18016877484347621 1 0.20506659366840813 1 0.23075826109853689 1 
	0.25598605695577187 1 0.28050219566068396 1 0.30732843731972304 1 0.33358414872589803 1 0.35857548005648993 1 
	0.38460494104511905 1 0.40963433543254568 1 0.43545744471388137 1 0.46118337895188904 1 0.48652673967540544 1 
	0.51313510661203676 1 0.53819924495253058 1 0.56383138534357258 1 0.59032847691252888 1 0.61497061613831772 1 
	0.64119339042157808 1 0.66663230333216994 1 0.69184757066553215 1 0.71840797213381102 1 0.74339704175339505 1 
	0.76937027910366629 1 0.79544861645464604 1 0.82030427155079078 1 0.84677537991821372 1 0.87062425071457938 1 
	0.89869547100901404 1 0.92247594687172785 1 0.9501886834555402 1 0.97736010022906383 1 1 5 
	-700.0737767254144 4000.0084235597305 -701.70739146213123 
	-692.57884203555477 3999.9917839455684 -707.36263491211992 
	-677.56790577355355 3999.9519959950267 -720.4210648209945 
	-655.84848941109749 3999.8849921557567 -741.84416555709163 
	-626.45333127928939 3999.7913647981113 -771.62740621818193 
	-589.24235732968748 3999.672958525925 -809.29870051615853 
	-552.53105060913936 3999.5610878671469 -845.13852277952003 
	-515.8235698762943 3999.4557393609875 -879.22955154014107 
	-478.68907742776065 3999.358870108344 -911.11591438027642 
	-441.90059414557584 3999.2730888818869 -939.97508997712941 
	-405.776307624921 3999.2020577484172 -964.77476547386652 
	-369.82494702709647 3999.1459462672324 -985.54783427146037 
	-333.8758939938071 3999.1066299102827 -1001.8188070837925 
	-297.7360463925707 3999.088940313618 -1012.3234163575021 
	-261.93174711675704 3999.0871730952472 -1018.506717490234 
	-226.05444079553322 3999.1026989396714 -1020.0664665133148 
	-190.1682292619457 3999.1336164889608 -1017.5020770519023 
	-154.6859329229253 3999.1785820868922 -1011.1078683401879 
	-119.45953243944015 3999.2358282967007 -1001.3811844892948 
	-84.236282738094232 3999.304688415501 -988.54103167690391 
	-48.937884632217553 3999.3834756297988 -973.05202583726191 
	-13.700122606289437 3999.4702967953444 -955.3999479696547 
	21.431922090306564 3999.5630832248216 -936.1320954620461 
	56.73750558720814 3999.660709049147 -915.59477603553125 
	91.823627473558801 3999.7609745847949 -894.31491723638817 
	126.79800286183401 3999.8616717705563 -872.90153996637525 
	161.88760852491421 3999.961193693679 -851.82155297521433 
	196.89961025821842 4000.0562489765575 -831.92641906907977 
	231.98457984311943 4000.1449970326998 -813.73349628318658 
	267.24560277864117 4000.2247351060778 -797.98366415310079 
	302.51537203719255 4000.2954970130072 -784.64117860558747 
	338.0360197558698 4000.3580565322609 -773.53724987888904 
	373.53325588216842 4000.4117925195073 -764.79462779598612 
	409.08994183377644 4000.4558860949278 -758.64601679309612 
	444.43093151233273 4000.4881556328169 -755.63229816194951 
	480.4805714875784 4000.5065852720618 -756.4412020410964 
	516.1344873174105 4000.4967360389055 -764.76680730323449 
	552.93224201112184 4000.4476265656485 -783.79804565840629 
	590.42646412708825 4000.3413853913639 -818.25380284356993 
	627.82694144161644 4000.2071975963122 -860.18536128908249 
	657.12517547560731 4000.100674921569 -893.40957802543301 
	679.42225603808924 4000.0332713857665 -915.03193116634895 
	693.6358582903589 4000.002850958479 -925.452362021721 
	700.05040055119241 3999.994245447313 -928.78187483862325 
	0 
	null_surface 
	null_surface 
	nullbs 
	nullbs 
	-1 
	-1 
	I I 
	0 
	0 
	0 
	
	-1 
	none F F 1 F 0 } I I #
rgb_color-st-attrib $-1 -1 $-1 $-1 $16 2 1 2 1 1 1 1 1 1 1 1 1 1 1 0 1 1 1 0.50196081399917603 0.63527888059616089 0.70588237047195435 #
vertex $-1 -1 -1 $-1 $22 $35 #
intcurve-curve $-1 -1 -1 $-1 forward { exactcur full nubs 5 open 40 
	0 5 0.026247138032194341 1 0.052365922595816419 1 0.075473469176605565 1 0.10205405101714514 1 
	0.12919259638346572 1 0.15385964208585737 1 0.18016877484347621 1 0.20506659366840813 1 0.23075826109853689 1 
	0.25598605695577187 1 0.28050219566068396 1 0.30732843731972304 1 0.33358414872589803 1 0.35857548005648993 1 
	0.38460494104511905 1 0.40963433543254568 1 0.43545744471388137 1 0.46118337895188904 1 0.48652673967540544 1 
	0.51313510661203676 1 0.53819924495253058 1 0.56383138534357258 1 0.59032847691252888 1 0.61497061613831772 1 
	0.64119339042157808 1 0.66663230333216994 1 0.69184757066553215 1 0.71840797213381102 1 0.74339704175339505 1 
	0.76937027910366629 1 0.79544861645464604 1 0.82030427155079078 1 0.84677537991821372 1 0.87062425071457938 1 
	0.89869547100901404 1 0.92247594687172785 1 0.9501886834555402 1 0.97736010022906383 1 1 5 
	-660.19390456769406 0.022139322381008249 -544.33728974836595 
	-652.79778555784765 -0.031166727728759724 -558.73219330944039 
	-638.07611737577417 -0.13359032188736819 -586.39331400952528 
	-616.99946710172901 -0.26508205820141484 -621.91493291911399 
	-588.6466063608857 -0.42613826897695617 -665.43506841566875 
	-552.99374920018488 -0.60265629627110684 -713.15466747535788 
	-517.95878546563074 -0.75625352282168024 -754.69666131135443 
	-483.02752934289839 -0.89227220637963001 -791.50262486549877 
	-447.7466183480106 -1.0142498207276276 -824.52765147741843 
	-412.83558813386782 -1.1207899457488111 -853.39218852627437 
	-378.55268432505375 -1.2132077611090608 -878.4493287350997 
	-344.41010238285247 -1.2941528571809613 -900.41513655544156 
	-310.21791637051467 -1.3651745777451652 -919.70788363205065 
	-275.74541142560349 -1.4272717344933881 -936.59772266502534 
	-241.53839958052956 -1.480165775790738 -951.00706024248882 
	-207.19237908846725 -1.5247670781127454 -963.18303820117853 
	-172.77753886726535 -1.5617551252914836 -973.30837670726771 
	-138.69873556028085 -1.5906126759898598 -981.24184031267021 
	-104.81878624775372 -1.6127346395835502 -987.35985029598078 
	-70.911620546289157 -1.6273530030605343 -991.45656654932304 
	-36.905007661371663 -1.6358761759593108 -993.91174334864684 
	-2.9546454498256285 -1.6369295784982114 -994.35434945927386 
	30.892365165216255 -1.6319389617283377 -993.16825259131258 
	64.88067051682566 -1.619836206794389 -990.06685297694889 
	98.628767113831429 -1.6014438996930949 -985.26996518525129 
	132.21833133385488 -1.5765736908035706 -978.72723115162819 
	165.84780670959225 -1.5449637263743625 -970.36903753594515 
	199.3115027180055 -1.5069912966366701 -960.29606161214519 
	232.7306678399099 -1.4620261685220157 -948.33908991541102 
	266.18013544330285 -1.410063496093926 -934.49716706695347 
	299.49809790190562 -1.3506077250724502 -918.63603700063493 
	332.91673276004104 -1.2833724716010693 -900.67963593974991 
	366.16605173720262 -1.2076449784569832 -880.43468866852743 
	399.3188957847766 -1.1235938498350606 -857.94695682448219 
	432.09046469365745 -1.0303786221390965 -832.98869263223924 
	465.32436305299041 -0.92671191126009944 -805.21702973306219 
	497.86125553952132 -0.81272703033278049 -774.66245822460519 
	531.04666109413415 -0.6866672609694433 -740.85802419843947 
	564.2646645913477 -0.54322031490414702 -702.36975038767378 
	597.05288337294019 -0.38714359228151807 -660.47708632540048 
	622.54939881236487 -0.24466514175901466 -622.21359630775737 
	641.9662829800543 -0.12484092494059951 -590.02456777980262 
	654.3663181147856 -0.039191232690654942 -567.00910766542836 
	660.01251067065516 -0.001428423136303536 -556.86246642717538 
	0 
	null_surface 
	null_surface 
	nullbs 
	nullbs 
	-1 
	-1 
	I I 
	0 
	0 
	0 
	
	-1 
	none F F 1 F 0 } I I #
point $-1 -1 -1 $-1 -660.19390456769406 0.022139322381008249 -544.33728974836595 #
point $-1 -1 -1 $-1 -700.0737767254144 4000.0084235597305 -701.70739146213123 #
rgb_color-st-attrib $-1 -1 $-1 $-1 $22 2 1 2 1 1 1 1 1 1 1 1 1 1 1 0 1 1 1 0.50196081399917603 0.63527888059616089 0.70588237047195435 #
intcurve-curve $-1 -1 -1 $-1 forward { exactcur full nubs 5 open 7 
	0 5 0.14889745088713452 1 0.34332301168695262 1 0.48264120744840244 1 0.75099190104898306 1 
	0.91392846802273242 1 1 5 
	660.01251067065516 -0.001428423136303536 -556.86246642717538 
	661.20301357156143 119.11660955043706 -567.88250802396203 
	663.98352152803636 393.77114559599272 -594.38377186828438 
	667.8716655967313 779.88102714716706 -631.00302991297917 
	673.93667938847705 1380.668030960102 -688.44556162701906 
	681.24110474343865 2111.8116048857682 -755.99863724429224 
	688.07838652197802 2792.6903945579647 -819.98409721998792 
	693.28191537689861 3318.0376811315609 -867.14251695506323 
	697.40232230030381 3731.9268232590293 -904.93707353542743 
	699.38178226332093 3931.1347415935925 -923.01345030603079 
	700.05040055119241 3999.994245447313 -928.78187483862325 
	0 
	null_surface 
	null_surface 
	nullbs 
	nullbs 
	-1 
	-1 
	I I 
	0 
	0 
	0 
	
	-1 
	none F F 1 F 0 } I I #
point $-1 -1 -1 $-1 700.05040055119241 3999.994245447313 -928.78187483862325 #
point $-1 -1 -1 $-1 660.01251067065516 -0.001428423136303536 -556.86246642717538 #
End-of-ACIS-data 